<svg width="24" height="24" viewBox="0 0 24 24" fill="none" xmlns="http://www.w3.org/2000/svg">
<path d="M6.9203 20.8831C4.25299 20.8831 4.39444 14.3159 4.79858 11.0323C4.24292 11.5879 2.85898 12.4265 2.37401 11.9416C1.7678 11.3354 1.91948 9.81984 2.67724 8.30432C3.43499 6.7888 6.61759 3 11.9219 3C17.2262 3 20.5601 7.54656 21.1663 8.60742C21.7725 9.66828 22.5302 11.0323 21.4694 12.0931C20.7335 12.829 19.4887 11.795 18.7427 10.9473C18.6829 10.8794 18.5613 10.9465 18.5899 11.0323C20.257 19.0645 17.529 20.8831 16.3166 20.8831C15.3467 20.8831 14.599 19.8728 14.3464 19.3676H8.89057C8.52685 20.7013 7.42551 20.9336 6.9203 20.8831Z" fill="#547D9B"/>
</svg>
