<svg width="24" height="24" viewBox="0 0 24 24" fill="none" xmlns="http://www.w3.org/2000/svg">
<path fill-rule="evenodd" clip-rule="evenodd" d="M3 8.21849V15.0312C3 15.2964 3.10536 15.5507 3.29289 15.7383L4.84874 17.2941L4.84933 17.2941V19.9832C4.96138 20.6555 5.62244 22 7.37034 22C9.11824 22 9.66726 20.6555 9.72328 19.9832C9.72328 19.6471 9.82412 18.9748 10.2275 18.9748C10.6308 18.9748 10.7317 19.6471 10.7317 19.9832C10.8437 20.6555 11.3703 22 12.5804 22C14.093 22 14.5972 20.3193 14.5972 19.9832C14.5972 19.6471 14.5972 18.9748 14.9334 18.9748C15.2695 18.9748 15.4376 19.479 15.4376 19.9832C15.4376 20.4874 16.1098 22 17.6224 22C19.135 22 19.9754 20.4874 19.9754 19.9832V17.2941L19.9748 17.2941L21.5306 15.7383C21.7182 15.5507 21.8235 15.2964 21.8235 15.0312V8.21849C21.1513 6.14566 18.395 2 12.7479 2C5.68908 2 3 7.71429 3 8.21849ZM20.1425 10.2353C20.1425 12.1845 18.5624 13.7647 16.6131 13.7647C14.6639 13.7647 13.0837 12.1845 13.0837 10.2353C13.0837 8.28605 14.6639 6.70588 16.6131 6.70588C18.5624 6.70588 20.1425 8.28605 20.1425 10.2353ZM7.87428 13.7647C9.82352 13.7647 11.4037 12.1845 11.4037 10.2353C11.4037 8.28605 9.82352 6.70588 7.87428 6.70588C5.92504 6.70588 4.34487 8.28605 4.34487 10.2353C4.34487 12.1845 5.92504 13.7647 7.87428 13.7647Z" fill="#547D9B"/>
</svg>
