<svg width="24" height="24" viewBox="0 0 24 24" fill="none" xmlns="http://www.w3.org/2000/svg">
<path d="M3.71775 8.88717C2.41784 7.58725 3.17612 6.17902 3.71775 5.63738C8.31783 1.03731 15.218 2.83077 15.218 8.11412C13.3272 6.34151 11.9682 6.39075 11.525 6.63695C16.8429 11.0685 14.0362 14.6137 15.8088 15.9431C17.2269 17.0067 19.2556 16.0909 20.0926 15.5C19.7972 17.2726 18.0246 20.5224 14.6271 20.5224C11.9091 20.5224 10.5402 18.0604 10.1956 16.8294C9.84105 17.893 10.3651 19.966 11.1037 21C7.8539 19.2274 7.93057 15.6969 8.12753 14.1705C6.70944 15.825 5.17318 15.1553 4.58231 14.6137C7.26303 12.5801 5.34264 10.5121 3.71775 8.88717Z" fill="#547D9B"/>
</svg>
