<svg width="24" height="24" viewBox="0 0 24 24" fill="none" xmlns="http://www.w3.org/2000/svg">
<path fill-rule="evenodd" clip-rule="evenodd" d="M18.3913 20.7049C18.3926 20.6504 18.3933 20.5958 18.3933 20.541C18.3933 17.01 15.5309 14.1476 11.9999 14.1476C8.46889 14.1476 5.60645 17.01 5.60645 20.541C5.60645 20.5958 5.60713 20.6504 5.60851 20.7049H18.3913Z" fill="#547D9B"/>
<path fill-rule="evenodd" clip-rule="evenodd" d="M4.1313 7.42623C5.44278 5.72131 5.00562 3.76503 4.6231 3C5.60687 3.65574 6.2623 4.80328 6.2623 6.11475C6.2623 6.74744 6.10968 7.18936 5.9149 7.75341C5.70592 8.35857 5.44839 9.10432 5.27869 10.377C5.06479 11.9813 6.28998 13.2585 7.2828 13.9419C5.93137 14.8609 4.86496 16.1678 4.24365 17.7025C3.32373 16.3372 2 14.0414 2 12.6721C2 10.7049 2.49196 9.55738 4.1313 7.42623ZM19.6944 17.794C20.6155 16.4418 22 14.0724 22 12.6721C22 10.7049 21.508 9.55738 19.8687 7.42623C18.5572 5.72131 18.9944 3.76503 19.3769 3C18.3931 3.65574 17.7377 4.80328 17.7377 6.11475C17.7377 6.74744 17.8903 7.18936 18.0851 7.75341L18.0851 7.75343C18.2941 8.35859 18.5516 9.10433 18.7213 10.377C18.9388 12.008 17.6689 13.3009 16.6679 13.9755C18.0227 14.911 19.0861 16.2385 19.6944 17.794Z" fill="#547D9B"/>
</svg>
