<svg width="24" height="24" viewBox="0 0 24 24" fill="none" xmlns="http://www.w3.org/2000/svg">
<path d="M13.6524 11.24L8.08988 19.7978C7.6718 20.441 8.10318 21.2883 8.87012 21.2706C12.2367 21.193 17.6472 20.2502 20.1523 15.24C22.4583 10.628 21.2193 5.42525 20.5226 3.26483C20.3134 2.61627 19.7486 2.17285 19.0701 2.10988C16.5286 1.87401 10.0964 1.69063 6.15237 5.24003C2.90277 8.16447 2.65063 13.0167 3.26813 15.9302C3.4085 16.5924 4.18468 16.802 4.71034 16.3755C7.73959 13.9173 12.4423 10.24 13.1524 10.24C13.9524 10.24 13.8191 10.9067 13.6524 11.24Z" fill="#4DDF23"/>
</svg>
