<svg width="24" height="24" viewBox="0 0 24 24" fill="none" xmlns="http://www.w3.org/2000/svg">
<path d="M22 9.22683L18.5655 4.76202C17.5351 7.68132 17.1918 8.36822 14.616 8.71166C12.0402 9.05511 11.1815 6.30753 11.0098 5.79236C10.8381 5.27719 10.4946 4.24685 9.12084 4.07513C7.74707 3.90341 7.23178 3.90341 4.31258 5.44892C1.97722 6.68533 1.85118 8.82615 2.08008 9.742C4.96503 6.03278 7.97598 8.99787 9.12084 10.9441C3.21355 10.2572 3.45397 14.7792 4.31258 17.1261C4.36982 16.4965 4.82775 15.0654 6.20154 14.3785C7.91878 13.5199 10.071 15.162 11.6165 15.6772C13.162 16.1924 13.5055 14.9595 14.616 15.2372C15.3029 15.4089 16.3676 16.4392 15.8181 17.813C15.2685 19.1868 13.6429 19.0723 12.8988 18.8433C14.7877 21.7626 20.1111 20.904 20.1111 17.813C20.1111 14.722 19.0807 15.2372 18.5655 13.3482C18.1534 11.837 20.6835 9.97097 22 9.22683Z" fill="#547D9B"/>
</svg>
