<svg width="24" height="24" viewBox="0 0 24 24" fill="none" xmlns="http://www.w3.org/2000/svg">
<rect x="10.5518" y="8.48277" width="3.0345" height="5.79314" rx="1.51725" fill="#547D9B"/>
<rect x="14.6895" y="7.65518" width="3.0345" height="5.79314" rx="1.51725" fill="#547D9B"/>
<path fill-rule="evenodd" clip-rule="evenodd" d="M20.3513 6C19.4405 6 18.7021 6.73837 18.7021 7.64919V10.9476C18.7021 11.11 18.7256 11.267 18.7694 11.4152C18.899 12.3965 19.1472 14.3545 18.8674 17.2084C18.782 18.0794 19.6325 18.548 20.1174 17.8195C21.0619 16.4007 21.9605 14.1569 21.9993 11.0102C22.0001 10.9894 22.0005 10.9685 22.0005 10.9476V10.8674C22.0006 10.8442 22.0007 10.8209 22.0007 10.7976H22.0005V7.64919C22.0005 6.73837 21.2622 6 20.3513 6Z" fill="#547D9B"/>
<path fill-rule="evenodd" clip-rule="evenodd" d="M3.64964 6C4.56046 6 5.29883 6.73837 5.29883 7.64919V10.9476C5.29883 11.11 5.27534 11.267 5.23157 11.4152C5.10201 12.3965 4.85382 14.3545 5.1336 17.2084C5.21899 18.0794 4.36851 18.548 3.88355 17.8195C2.93907 16.4007 2.04051 14.1569 2.00163 11.0102C2.00085 10.9894 2.00046 10.9685 2.00046 10.9476V10.8674C2.00036 10.8442 2.00032 10.8209 2.00032 10.7976H2.00046V7.64919C2.00046 6.73837 2.73882 6 3.64964 6Z" fill="#547D9B"/>
<rect x="6.41406" y="7.65518" width="3.0345" height="5.79314" rx="1.51725" fill="#547D9B"/>
</svg>
