<svg width="24" height="24" viewBox="0 0 24 24" fill="none" xmlns="http://www.w3.org/2000/svg">
<path fill-rule="evenodd" clip-rule="evenodd" d="M7.32791 6.97915C8.69666 7.93727 10.9486 8.19991 12.0001 8.21581C13.0517 8.19991 15.3036 7.93727 16.6724 6.97915C18.4402 5.7417 21.7989 5.03459 21.9757 8.9237C22.1525 12.8128 21.4454 18.4697 17.5563 18.6465C15.2497 18.7513 14.3733 18.11 13.6363 17.5707C13.1526 17.2167 12.7289 16.9067 12.0001 16.8805C11.2714 16.9067 10.8477 17.2167 10.364 17.5707C9.62698 18.11 8.75057 18.7513 6.44402 18.6465C2.55491 18.4697 1.8478 12.8128 2.02458 8.9237C2.20135 5.03459 5.56013 5.7417 7.32791 6.97915ZM4.65132 10.5962C4.71024 11.7748 5.32307 14.45 7.30299 15.7228C7.42084 14.9568 7.83332 13.4247 8.54043 13.4247C9.0766 13.4247 9.22248 13.7499 9.37265 14.0847C9.47005 14.3019 9.56924 14.523 9.77788 14.6621C10.3082 15.0157 10.485 14.8389 10.8385 14.1318C11.1921 13.4247 11.5457 13.4247 11.8992 13.4247C12.0286 13.4247 12.1343 13.5905 12.2684 13.8007C12.5006 14.1648 12.8178 14.6621 13.4902 14.6621C14.0447 14.6621 14.261 14.3239 14.4675 14.0012C14.6559 13.7065 14.8362 13.4247 15.258 13.4247C15.9651 13.4247 16.4954 14.9568 16.6722 15.7228C17.5561 14.9568 19.2885 12.859 19.1471 10.5962C18.44 12.5408 16.4954 13.0711 16.4954 13.0711C16.4954 13.0711 17.3793 10.5962 16.6722 9.18201C16.2008 10.007 15.1166 11.6923 14.5509 11.8337C14.132 11.9384 13.9613 11.1747 13.8182 10.5346C13.7197 10.0942 13.6343 9.71235 13.4902 9.71235C13.3438 9.71235 13.167 10.0763 12.9599 10.5027C12.667 11.1058 12.3134 11.8337 11.8992 11.8337C11.485 11.8337 11.1921 11.1058 10.9495 10.5027C10.7779 10.0763 10.6314 9.71235 10.485 9.71235C10.3261 9.71235 10.2029 10.1409 10.0672 10.6128C9.90108 11.1908 9.71627 11.8337 9.42432 11.8337C8.89399 11.8337 7.30299 10.0659 6.94943 9.18201C6.8905 9.94805 6.87872 11.7983 7.30299 13.0711C6.83158 13.0711 5.64127 12.5761 4.65132 10.5962Z" fill="#547D9B"/>
</svg>
