<svg width="24" height="24" viewBox="0 0 24 24" fill="none" xmlns="http://www.w3.org/2000/svg">
<circle cx="12" cy="12" r="6" fill="#EAB232"/>
<path d="M12 2L13.7321 3.5H10.2679L12 2Z" fill="#EAB232"/>
<path d="M22 12L20.5 13.7321L20.5 10.2679L22 12Z" fill="#EAB232"/>
<path d="M19.0711 19.0711L16.7857 19.2352L19.2352 16.7857L19.0711 19.0711Z" fill="#EAB232"/>
<path d="M19.0714 4.92892L19.2355 7.21433L16.786 4.76484L19.0714 4.92892Z" fill="#EAB232"/>
<path d="M12 22L10.2679 20.5H13.7321L12 22Z" fill="#EAB232"/>
<path d="M2 12L3.5 10.2679L3.5 13.7321L2 12Z" fill="#EAB232"/>
<path d="M4.92886 4.92893L7.21427 4.76484L4.76478 7.21433L4.92886 4.92893Z" fill="#EAB232"/>
<path d="M4.92856 19.0711L4.76448 16.7857L7.21396 19.2352L4.92856 19.0711Z" fill="#EAB232"/>
</svg>
