<svg width="18" height="17" viewBox="0 0 18 17" fill="none" xmlns="http://www.w3.org/2000/svg">
<ellipse cx="6.41934" cy="3.26389" rx="2.0795" ry="2.81344" transform="rotate(-15.3583 6.41934 3.26389)" fill="white"/>
<ellipse cx="2.75039" cy="6.93332" rx="2.0795" ry="2.81344" transform="rotate(-15.3583 2.75039 6.93332)" fill="white"/>
<ellipse cx="11.8134" cy="3.11897" rx="2.0795" ry="2.81344" transform="rotate(9.5323 11.8134 3.11897)" fill="white"/>
<ellipse cx="15.4833" cy="6.78877" rx="2.0795" ry="2.81344" transform="rotate(9.5323 15.4833 6.78877)" fill="white"/>
<path d="M8.92915 6.60535C7.95056 6.60535 7.13507 7.42084 6.84965 7.82858C6.48268 8.35283 5.38177 9.90808 4.40318 10.7643C3.42459 11.6206 3.05762 12.4769 3.05762 13.7001C3.05762 14.9234 4.15853 16.0243 5.38177 16.0243C6.605 16.0243 7.33894 15.6573 7.95056 15.4126C8.56218 15.168 9.90774 15.168 10.397 15.4126C10.8863 15.6573 11.9872 16.0243 12.7212 16.0243C13.4551 16.0243 14.3114 15.6573 14.6784 15.0457C15.0453 14.4341 15.1677 13.5778 14.556 12.4769C13.9444 11.376 11.8649 8.4402 11.3756 7.95091C10.8863 7.46161 10.1524 6.60535 8.92915 6.60535Z" fill="white"/>
</svg>
