<svg width="18" height="11" viewBox="0 0 18 11" fill="none" xmlns="http://www.w3.org/2000/svg">
<rect x="7.69629" y="2.23438" width="2.73099" height="5.2137" rx="1.36549" fill="white"/>
<rect x="11.4199" y="1.48975" width="2.73099" height="5.2137" rx="1.36549" fill="white"/>
<path fill-rule="evenodd" clip-rule="evenodd" d="M16.5155 0C15.6958 0 15.0312 0.664512 15.0312 1.48423V4.4527C15.0312 4.60039 15.0528 4.74304 15.093 4.87768C15.2062 5.73545 15.4187 7.41727 15.2021 9.8571C15.1247 10.7288 15.9667 11.1855 16.4307 10.4435C17.2522 9.12958 18.0005 7.10919 18.0005 4.31775H17.9997V1.48423C17.9997 0.664514 17.3352 0 16.5155 0Z" fill="white"/>
<path fill-rule="evenodd" clip-rule="evenodd" d="M1.48452 0C2.30424 0 2.96875 0.664512 2.96875 1.48423V4.4527C2.96875 4.59937 2.94747 4.74108 2.90784 4.8749C2.79471 5.7318 2.58153 7.41462 2.79834 9.8571C2.87572 10.7288 2.03377 11.1855 1.56979 10.4435C0.766204 9.15831 0.0327101 7.19721 0.00101757 4.49975C0.000530958 4.48413 0.000285864 4.46844 0.000285864 4.4527V4.41981C6.31809e-05 4.38591 -4.86374e-05 4.35188 -4.86374e-05 4.31775H0.000285864V1.48423C0.000285864 0.664514 0.664799 0 1.48452 0Z" fill="white"/>
<rect x="3.97266" y="1.48975" width="2.73099" height="5.2137" rx="1.36549" fill="white"/>
</svg>
