<svg width="18" height="16" viewBox="0 0 18 16" fill="none" xmlns="http://www.w3.org/2000/svg">
<path fill-rule="evenodd" clip-rule="evenodd" d="M14.7524 15.9344C14.7537 15.8853 14.7543 15.8361 14.7543 15.7868C14.7543 12.6089 12.1781 10.0327 9.00019 10.0327C5.82229 10.0327 3.24609 12.6089 3.24609 15.7868C3.24609 15.8361 3.24671 15.8853 3.24795 15.9344H14.7524Z" fill="white"/>
<path fill-rule="evenodd" clip-rule="evenodd" d="M1.91817 3.98361C3.0985 2.44918 2.70506 0.688525 2.36079 0C3.24618 0.590164 3.83607 1.62295 3.83607 2.80328C3.83607 3.37269 3.69872 3.77042 3.52341 4.27807C3.33532 4.82272 3.10355 5.49388 2.95082 6.63934C2.75829 8.08335 3.86125 9.23292 4.75485 9.84793C3.53853 10.6751 2.57876 11.8514 2.01963 13.2328C1.19169 12.004 0 9.9374 0 8.70492C0 6.93443 0.442761 5.90164 1.91817 3.98361ZM15.9254 13.3146C16.7545 12.0976 18.0005 9.96519 18.0005 8.70492C18.0005 6.93443 17.5577 5.90164 16.0823 3.98361C14.902 2.44918 15.2954 0.688525 15.6397 0C14.7543 0.590164 14.1644 1.62295 14.1644 2.80328C14.1644 3.37269 14.3018 3.77042 14.4771 4.27807C14.6652 4.82272 14.8969 5.49388 15.0497 6.63934C15.2454 8.10721 14.1024 9.27084 13.2015 9.87798C14.4209 10.7199 15.378 11.9146 15.9254 13.3146Z" fill="white"/>
</svg>
