<svg width="11" height="12" viewBox="0 0 11 12" fill="none" xmlns="http://www.w3.org/2000/svg">
<path d="M8.50331 3.51185C8.37203 3.45213 8.20559 3.45213 8.08299 3.52894C7.95171 3.61422 7.87281 3.75074 7.87281 3.89576V4.74884C7.87281 4.98774 7.68018 5.17538 7.43495 5.17538C7.18971 5.17538 6.99708 4.98774 6.99708 4.74884V3.89576C6.99708 1.78012 5.22808 0 3.0563 0C2.88118 0 2.72352 0.10237 2.65349 0.264455C2.58337 0.42654 2.61843 0.605716 2.74982 0.72509C3.41529 1.37343 3.78324 3.17912 3.42404 4.00664C3.29277 4.32228 3.12641 4.32228 3.0563 4.32228C2.81106 4.32228 2.61843 4.13463 2.61843 3.89573V3.04265C2.61843 2.87204 2.51334 2.71848 2.3469 2.65021C2.18932 2.58199 1.99669 2.61611 1.87406 2.74408C0.70937 3.87864 0.0438157 5.3886 0 7.02651C0.085588 9.79177 2.39138 12 5.23686 12C8.28014 12 10.5 9.45987 10.5 6.65972C10.5 5.32035 9.73811 4.109 8.50331 3.51185ZM4.80776 10.2938C3.84448 10.2938 3.0563 9.52604 3.0563 8.58768C3.0563 7.76022 4.24729 6.42936 4.48374 6.17343C4.65018 5.99431 4.96533 5.99431 5.13178 6.17343C5.36825 6.42936 6.55922 7.76019 6.55922 8.58768C6.55922 9.52604 5.77103 10.2938 4.80776 10.2938Z" fill="white"/>
</svg>
