<svg width="40" height="40" viewBox="0 0 40 40" fill="none"
    xmlns="http://www.w3.org/2000/svg">
    <path d="M36.6673 15.3781L30.9432 7.93679C29.2258 12.8023 28.6537 13.9471 24.3606 14.5195C20.0676 15.0919 18.6365 10.5126 18.3503 9.65402C18.0641 8.7954 17.4917 7.07817 15.2021 6.79196C12.9124 6.50576 12.0536 6.50576 7.18829 9.08161C3.29603 11.1423 3.08595 14.7103 3.46745 16.2368C8.2757 10.0547 13.294 14.9965 15.2021 18.2402C5.35657 17.0954 5.75726 24.6321 7.18829 28.5436C7.28369 27.4942 8.04691 25.1091 10.3366 23.9643C13.1986 22.5333 16.7857 25.2701 19.3615 26.1287C21.9374 26.9874 22.5098 24.9326 24.3606 25.3953C25.5055 25.6815 27.2799 27.3988 26.3641 29.6884C25.4482 31.9781 22.7388 31.7873 21.4986 31.4057C24.6468 36.2712 33.5192 34.8401 33.5192 29.6884C33.5192 24.5367 31.8018 25.3953 30.9432 22.2471C30.2563 19.7285 34.4731 16.6184 36.6673 15.3781Z" fill=" #FF561E"></path>
</svg>