<svg width="40" height="40" viewBox="0 0 40 40" fill="none"
    xmlns="http://www.w3.org/2000/svg">
    <path d="M6.19625 14.8119C4.02973 12.6454 5.29353 10.2984 6.19625 9.39564C13.863 1.72885 25.3633 4.71796 25.3633 13.5235C22.212 10.5692 19.947 10.6512 19.2084 11.0616C28.0714 18.4474 23.3937 24.3561 26.348 26.5719C28.7115 28.3445 32.0926 26.8181 33.4877 25.8333C32.9953 28.7877 30.041 34.204 24.3785 34.204C19.8485 34.204 17.5671 30.1007 16.9926 28.0491C16.4018 29.8217 17.2752 33.2766 18.5061 35C13.0898 32.0457 13.2176 26.1616 13.5459 23.6176C11.1824 26.375 8.62196 25.2589 7.63718 24.3561C12.1051 20.9668 8.9044 17.5201 6.19625 14.8119Z" fill="#B829FF"></path>
</svg>