<svg width="40" height="40" viewBox="0 0 40 40" fill="none"
    xmlns="http://www.w3.org/2000/svg">
    <path fill-rule="evenodd" clip-rule="evenodd" d="M12.2138 11.6319C14.4952 13.2289 18.2487 13.6666 20.0012 13.693C21.7537 13.6666 25.5072 13.2289 27.7886 11.6319C30.7349 9.5695 36.3328 8.39099 36.6274 14.8728C36.9221 21.3547 35.7436 30.7828 29.2617 31.0775C25.4175 31.2522 23.9568 30.1833 22.7285 29.2845C21.9221 28.6944 21.2159 28.1777 20.0012 28.1341C18.7865 28.1777 18.0803 28.6944 17.2739 29.2845C16.0456 30.1833 14.5849 31.2522 10.7407 31.0775C4.25883 30.7828 3.08032 21.3547 3.37495 14.8728C3.66958 8.39099 9.26754 9.5695 12.2138 11.6319ZM7.75348 17.6604C7.85169 19.6246 8.87307 24.0833 12.1729 26.2046C12.3693 24.9279 13.0568 22.3745 14.2353 22.3745C15.1289 22.3745 15.3721 22.9165 15.6224 23.4746C15.7847 23.8364 15.95 24.2051 16.2977 24.4369C17.1816 25.0261 17.4763 24.7315 18.0655 23.553C18.6548 22.3745 19.244 22.3745 19.8333 22.3745C20.049 22.3745 20.2252 22.6508 20.4486 23.0011C20.8356 23.6079 21.3642 24.4369 22.485 24.4369C23.4091 24.4369 23.7696 23.8732 24.1137 23.3353C24.4278 22.8442 24.7282 22.3745 25.4313 22.3745C26.6098 22.3745 27.4937 24.9279 27.7883 26.2046C29.2614 24.9279 32.1488 21.4316 31.9131 17.6604C30.7346 20.9013 27.4937 21.7852 27.4937 21.7852C27.4937 21.7852 28.9668 17.6604 27.7883 15.3033C27.0026 16.6783 25.1956 19.4871 24.2527 19.7228C23.5546 19.8973 23.27 18.6244 23.0316 17.5577C22.8674 16.8237 22.7252 16.1872 22.485 16.1872C22.2409 16.1872 21.9463 16.7938 21.6011 17.5045C21.1129 18.5096 20.5237 19.7228 19.8333 19.7228C19.1429 19.7228 18.6548 18.5096 18.2504 17.5045C17.9644 16.7938 17.7203 16.1872 17.4763 16.1872C17.2114 16.1872 17.0061 16.9016 16.78 17.6881C16.5031 18.6513 16.1951 19.7228 15.7085 19.7228C14.8246 19.7228 12.1729 16.7765 11.5837 15.3033C11.4855 16.5801 11.4658 19.6639 12.1729 21.7852C11.3872 21.7852 9.4034 20.9602 7.75348 17.6604Z" fill="#00BAFF"></path>
</svg>