<svg width="34" height="30" viewBox="0 0 34 30" fill="none"
    xmlns="http://www.w3.org/2000/svg">
    <path d="M8.53449 29.8052C4.08897 29.8052 4.32472 18.8598 4.99828 13.3871C4.07218 14.3132 1.76562 15.7109 0.957338 14.9026C-0.0530078 13.8923 0.199777 11.3664 1.46271 8.84053C2.72564 6.31466 8.02996 0 16.8705 0C25.711 0 31.2674 7.5776 32.2778 9.3457C33.2881 11.1138 34.5511 13.3871 32.783 15.1552C31.5565 16.3817 29.4818 14.6583 28.2384 13.2455C28.1389 13.1324 27.9362 13.2441 27.9838 13.3871C30.7623 26.7742 26.2157 29.8052 24.195 29.8052C22.5785 29.8052 21.3324 28.1213 20.9114 27.2793H11.8183C11.2121 29.5021 9.3765 29.8894 8.53449 29.8052Z" fill="#4DDF23"></path>
</svg>