<svg width="24" height="24" viewBox="0 0 24 24" fill="none" xmlns="http://www.w3.org/2000/svg">
<ellipse cx="8.84701" cy="5.98909" rx="2.54166" ry="3.43872" transform="rotate(-15.3583 8.84701 5.98909)" fill="#547D9B"/>
<ellipse cx="4.36166" cy="10.4744" rx="2.54166" ry="3.43872" transform="rotate(-15.3583 4.36166 10.4744)" fill="#547D9B"/>
<ellipse cx="15.4391" cy="5.81215" rx="2.54166" ry="3.43872" transform="rotate(9.5323 15.4391 5.81215)" fill="#547D9B"/>
<ellipse cx="19.9244" cy="10.2974" rx="2.54166" ry="3.43872" transform="rotate(9.5323 19.9244 10.2974)" fill="#547D9B"/>
<path d="M11.9138 10.0735C10.7177 10.0735 9.72096 11.0702 9.3721 11.5686C8.92357 12.2094 7.57799 14.1103 6.38191 15.1568C5.18583 16.2034 4.7373 17.25 4.7373 18.7451C4.7373 20.2402 6.08289 21.5858 7.57799 21.5858C9.07308 21.5858 9.97014 21.1372 10.7177 20.8382C11.4652 20.5392 13.1098 20.5392 13.7079 20.8382C14.3059 21.1372 15.6515 21.5858 16.5486 21.5858C17.4456 21.5858 18.4922 21.1372 18.9407 20.3897C19.3892 19.6421 19.5388 18.5956 18.7912 17.25C18.0437 15.9044 15.502 12.3162 14.904 11.7181C14.3059 11.1201 13.4089 10.0735 11.9138 10.0735Z" fill="#547D9B"/>
</svg>
