<svg width="57" height="24" viewBox="0 0 57 24" fill="none" xmlns="http://www.w3.org/2000/svg">
<rect width="57" height="24" rx="12" fill="white" fill-opacity="0.2"/>
<path d="M44.1374 15.8499L42.9723 19.7937L40.6919 19.1687L44.1374 15.8499Z" fill="#E4761B" stroke="#E4761B" stroke-width="0.0764" stroke-miterlimit="23.7982"/>
<path d="M40.6978 19.1687L42.8972 16.1437L44.1433 15.8499L40.6978 19.1687Z" fill="#E4761B" stroke="#E4761B" stroke-width="0.0764" stroke-miterlimit="23.7982"/>
<path d="M42.4302 12.8812L44.1374 15.8499L42.8912 16.1437L42.4302 12.8812ZM42.4302 12.8812L43.533 12.1187L44.1436 15.8562L42.4302 12.8812Z" fill="#F6851B" stroke="#F6851B" stroke-width="0.0764" stroke-miterlimit="23.7982"/>
<path d="M41.0283 10.6311L44.1935 9.33109L44.0377 10.0436L41.0283 10.6311ZM43.938 10.8998L41.0346 10.6311L44.0377 10.0436L43.938 10.8998Z" fill="#763D16" stroke="#763D16" stroke-width="0.0764" stroke-miterlimit="23.7982"/>
<path d="M43.9377 10.8998L43.5327 12.1123L41.0342 10.6311L43.9377 10.8998ZM44.5669 9.63109L44.0311 10.0436L44.1869 9.33109L44.5669 9.63109ZM43.9377 10.8998L44.0373 10.0436L44.461 10.3998L43.9377 10.8998Z" fill="#763D16" stroke="#763D16" stroke-width="0.0764" stroke-miterlimit="23.7982"/>
<path d="M38.2432 18.2061L39.0345 18.4624L40.698 19.1686L38.2432 18.2061Z" fill="#E2761B" stroke="#E2761B" stroke-width="0.0764" stroke-miterlimit="23.7982"/>
<path d="M43.5331 12.1126L43.938 10.9001L44.287 11.1689L43.5331 12.1126ZM43.5331 12.1126L40.2495 11.0251L41.0283 10.6314L43.5331 12.1126Z" fill="#763D16" stroke="#763D16" stroke-width="0.0764" stroke-miterlimit="23.7982"/>
<path d="M41.813 6.91245L41.0342 10.6374L40.2554 11.0312L41.813 6.91245Z" fill="#763D16" stroke="#763D16" stroke-width="0.0764" stroke-miterlimit="23.7982"/>
<path d="M44.1935 9.33128L41.0283 10.6313L41.8071 6.90628L44.1935 9.33128Z" fill="#763D16" stroke="#763D16" stroke-width="0.0764" stroke-miterlimit="23.7982"/>
<path d="M41.813 6.91244L45.1152 6.53119L44.1931 9.33744L41.813 6.91244Z" fill="#763D16" stroke="#763D16" stroke-width="0.0764" stroke-miterlimit="23.7982"/>
<path d="M43.5331 12.1125L42.4302 12.875L40.2495 11.025L43.5331 12.1125Z" fill="#F6851B" stroke="#F6851B" stroke-width="0.0764" stroke-miterlimit="23.7982"/>
<path d="M44.9661 3.85002L45.1094 6.53127L41.8071 6.91252L44.9661 3.85002Z" fill="#763D16" stroke="#763D16" stroke-width="0.0764" stroke-miterlimit="23.7982"/>
<path d="M44.9657 3.85002L38.3675 8.66252L38.2803 5.40002L44.9657 3.85002Z" fill="#E2761B" stroke="#E2761B" stroke-width="0.0764" stroke-miterlimit="23.7982"/>
<path d="M33.3833 5.00613L38.2868 5.39988L38.374 8.66238L33.3833 5.00613Z" fill="#F6851B" stroke="#F6851B" stroke-width="0.0764" stroke-miterlimit="23.7982"/>
<path d="M40.2494 11.0312L38.374 8.66245L41.8133 6.91245L40.2494 11.0312Z" fill="#763D16" stroke="#763D16" stroke-width="0.0764" stroke-miterlimit="23.7982"/>
<path d="M40.2495 11.0311L42.4302 12.8811L39.3647 13.2186L40.2495 11.0311Z" fill="#E4761B" stroke="#E4761B" stroke-width="0.0764" stroke-miterlimit="23.7982"/>
<path d="M39.3646 13.2189L38.3677 8.66264L40.2431 11.0314L39.3646 13.2189Z" fill="#E4761B" stroke="#E4761B" stroke-width="0.0764" stroke-miterlimit="23.7982"/>
<path d="M41.8133 6.91252L38.374 8.66252L44.9723 3.85002L41.8133 6.91252Z" fill="#763D16" stroke="#763D16" stroke-width="0.0764" stroke-miterlimit="23.7982"/>
<path d="M33.4206 19.0875L34.9783 20.7188L32.8599 18.7813L33.4206 19.0875Z" fill="#C0AD9E" stroke="#C0AD9E" stroke-width="0.0764" stroke-miterlimit="23.7982"/>
<path d="M40.6978 19.1687L41.433 16.3562L42.8972 16.1437L40.6978 19.1687Z" fill="#CD6116" stroke="#CD6116" stroke-width="0.0764" stroke-miterlimit="23.7982"/>
<path d="M27.1089 11.25L29.8068 8.40628L27.4578 10.9125L27.1089 11.25Z" fill="#E2761B" stroke="#E2761B" stroke-width="0.0764" stroke-miterlimit="23.7982"/>
<path d="M42.8975 16.1436L41.4333 16.3561L42.4302 12.8811L42.8975 16.1436ZM38.374 8.66238L35.7509 8.57488L33.3833 5.00613L38.374 8.66238Z" fill="#F6851B" stroke="#F6851B" stroke-width="0.0764" stroke-miterlimit="23.7982"/>
<path d="M42.43 12.8812L41.433 16.3562L41.3521 14.6624L42.43 12.8812Z" fill="#E4751F" stroke="#E4751F" stroke-width="0.0764" stroke-miterlimit="23.7982"/>
<path d="M39.3647 13.2187L42.4302 12.8812L41.3523 14.6562L39.3647 13.2187Z" fill="#CD6116" stroke="#CD6116" stroke-width="0.0764" stroke-miterlimit="23.7982"/>
<path d="M35.7446 8.57513L38.3677 8.66263L39.3646 13.2189L35.7446 8.57513Z" fill="#F6851B" stroke="#F6851B" stroke-width="0.0764" stroke-miterlimit="23.7982"/>
<path d="M35.7446 8.575L28.6666 2L33.3832 5.00625L35.7446 8.575ZM33.377 20.0875L27.2211 22L25.9937 17.2938L33.377 20.0875Z" fill="#E4761B" stroke="#E4761B" stroke-width="0.0764" stroke-miterlimit="23.7982"/>
<path d="M28.0249 12.4248L30.3489 10.5936L32.2991 11.0498L28.0249 12.4248Z" fill="#763D16" stroke="#763D16" stroke-width="0.0764" stroke-miterlimit="23.7982"/>
<path d="M32.293 11.0498L30.3428 10.5936L31.3895 6.27483L32.293 11.0498Z" fill="#763D16" stroke="#763D16" stroke-width="0.0764" stroke-miterlimit="23.7982"/>
<path d="M27.458 10.9127L30.349 10.6002L28.025 12.4314L27.458 10.9127Z" fill="#763D16" stroke="#763D16" stroke-width="0.0764" stroke-miterlimit="23.7982"/>
<path d="M41.3523 14.6564L40.1498 14.0501L39.3647 13.2189L41.3523 14.6564Z" fill="#CD6116" stroke="#CD6116" stroke-width="0.0764" stroke-miterlimit="23.7982"/>
<path d="M27.4581 10.9124L27.2524 9.82492L30.3491 10.5937L27.4581 10.9124Z" fill="#763D16" stroke="#763D16" stroke-width="0.0764" stroke-miterlimit="23.7982"/>
<path d="M39.9067 15.4126L40.156 14.0439L41.3585 14.6501L39.9067 15.4126Z" fill="#233447" stroke="#233447" stroke-width="0.0764" stroke-miterlimit="23.7982"/>
<path d="M41.4332 16.3499L39.9067 15.4124L41.3522 14.6499L41.4332 16.3499Z" fill="#F6851B" stroke="#F6851B" stroke-width="0.0764" stroke-miterlimit="23.7982"/>
<path d="M30.3487 10.5936L27.252 9.82483L26.9966 8.91233L30.3487 10.5936ZM31.3892 6.27483L30.3487 10.5936L26.9966 8.91233L31.3892 6.27483ZM31.3892 6.27483L35.7444 8.57483L32.2926 11.0498L31.3892 6.27483Z" fill="#763D16" stroke="#763D16" stroke-width="0.0764" stroke-miterlimit="23.7982"/>
<path d="M32.293 11.0501L35.7447 8.57513L37.2837 13.2939L32.293 11.0501ZM37.2837 13.2876L32.511 13.1876L32.293 11.0501L37.2837 13.2876Z" fill="#E4761B" stroke="#E4761B" stroke-width="0.0764" stroke-miterlimit="23.7982"/>
<path d="M28.0249 12.4248L32.2991 11.0498L32.5172 13.1873L28.0249 12.4248ZM39.3647 13.2186L37.2836 13.2873L35.7447 8.56856L39.3647 13.2186Z" fill="#F6851B" stroke="#F6851B" stroke-width="0.0764" stroke-miterlimit="23.7982"/>
<path d="M40.1557 14.0501L39.9064 15.4189L39.3706 13.2189L40.1557 14.0501Z" fill="#CD6116" stroke="#CD6116" stroke-width="0.0764" stroke-miterlimit="23.7982"/>
<path d="M28.6665 2L35.7507 8.575L31.3893 6.275L28.6665 2Z" fill="#763D16" stroke="#763D16" stroke-width="0.0764" stroke-miterlimit="23.7982"/>
<path d="M25.9937 17.2938L31.9688 17.0438L33.377 20.0876L25.9937 17.2938Z" fill="#E4761B" stroke="#E4761B" stroke-width="0.0764" stroke-miterlimit="23.7982"/>
<path d="M33.3769 20.0875L31.9688 17.0438L34.9034 16.9L33.3769 20.0875Z" fill="#CD6116" stroke="#CD6116" stroke-width="0.0764" stroke-miterlimit="23.7982"/>
<path d="M39.9067 15.4126L41.4332 16.3501L42.2743 18.3439L39.9067 15.4126ZM32.5109 13.1876L25.9937 17.2939L28.0248 12.4251L32.5109 13.1876ZM31.9688 17.0439L25.9937 17.2939L32.5171 13.1876L31.9688 17.0439ZM39.3646 13.2189L39.7571 14.6439L37.8692 14.7564L39.3646 13.2189ZM37.8692 14.7501L37.2836 13.2876L39.3646 13.2189L37.8692 14.7501Z" fill="#F6851B" stroke="#F6851B" stroke-width="0.0764" stroke-miterlimit="23.7982"/>
<path d="M34.9781 20.7186L33.3706 20.0874L38.9595 21.0311L34.9781 20.7186Z" fill="#C0AD9E" stroke="#C0AD9E" stroke-width="0.0764" stroke-miterlimit="23.7982"/>
<path d="M28.0248 12.4249L27.1089 11.2499L27.4578 10.9124L28.0248 12.4249Z" fill="#763D16" stroke="#763D16" stroke-width="0.0764" stroke-miterlimit="23.7982"/>
<path d="M39.5889 20.3311L38.9596 21.0311L33.377 20.0874L39.5889 20.3311Z" fill="#D7C1B3" stroke="#D7C1B3" stroke-width="0.0764" stroke-miterlimit="23.7982"/>
<path d="M39.8942 18.6188L33.377 20.0875L34.9035 16.9L39.8942 18.6188Z" fill="#E4761B" stroke="#E4761B" stroke-width="0.0764" stroke-miterlimit="23.7982"/>
<path d="M33.377 20.0873L39.8942 18.6186L39.5951 20.3311L33.377 20.0873Z" fill="#D7C1B3" stroke="#D7C1B3" stroke-width="0.0764" stroke-miterlimit="23.7982"/>
<path d="M26.997 8.91244L26.7852 5.23744L31.3896 6.27494L26.997 8.91244ZM27.4581 10.9124L26.8225 10.2687L27.2525 9.83119L27.4581 10.9124Z" fill="#763D16" stroke="#763D16" stroke-width="0.0764" stroke-miterlimit="23.7982"/>
<path d="M36.2183 14.2374L37.2837 13.2937L37.1342 15.6062L36.2183 14.2374Z" fill="#CD6116" stroke="#CD6116" stroke-width="0.0764" stroke-miterlimit="23.7982"/>
<path d="M37.2834 13.2875L36.2179 14.2313L34.6665 15.0375L37.2834 13.2875Z" fill="#CD6116" stroke="#CD6116" stroke-width="0.0764" stroke-miterlimit="23.7982"/>
<path d="M42.2806 18.3439L41.9878 18.1314L39.9067 15.4189L42.2806 18.3439Z" fill="#F6851B" stroke="#F6851B" stroke-width="0.0764" stroke-miterlimit="23.7982"/>
<path d="M34.6665 15.0439L32.5107 13.1877L37.2834 13.2877L34.6665 15.0439Z" fill="#CD6116" stroke="#CD6116" stroke-width="0.0764" stroke-miterlimit="23.7982"/>
<path d="M37.1343 15.6L37.2838 13.2875L37.8695 14.75L37.1343 15.6Z" fill="#E4751F" stroke="#E4751F" stroke-width="0.0764" stroke-miterlimit="23.7982"/>
<path d="M26.6104 9.27493L26.9967 8.91243L27.2521 9.82493L26.6104 9.27493Z" fill="#763D16" stroke="#763D16" stroke-width="0.0764" stroke-miterlimit="23.7982"/>
<path d="M37.1338 15.5999L34.6665 15.0436L36.2179 14.2374L37.1338 15.5999Z" fill="#233447" stroke="#233447" stroke-width="0.0764" stroke-miterlimit="23.7982"/>
<path d="M31.3896 6.275L26.7852 5.2375L28.6668 2L31.3896 6.275Z" fill="#763D16" stroke="#763D16" stroke-width="0.0764" stroke-miterlimit="23.7982"/>
<path d="M38.9595 21.0312L39.2212 21.75L34.9844 20.725L38.9595 21.0312Z" fill="#C0AD9E" stroke="#C0AD9E" stroke-width="0.0764" stroke-miterlimit="23.7982"/>
<path d="M34.897 16.9001L34.6665 15.0439L37.1338 15.6001L34.897 16.9001Z" fill="#F6851B" stroke="#F6851B" stroke-width="0.0764" stroke-miterlimit="23.7982"/>
<path d="M32.5107 13.1877L34.6665 15.0439L34.8971 16.9002L32.5107 13.1877Z" fill="#E4751F" stroke="#E4751F" stroke-width="0.0764" stroke-miterlimit="23.7982"/>
<path d="M37.869 14.7502L39.7569 14.6377L41.9875 18.1252L37.869 14.7502ZM32.5107 13.1877L34.897 16.9002L31.9624 17.0439L32.5107 13.1877Z" fill="#F6851B" stroke="#F6851B" stroke-width="0.0764" stroke-miterlimit="23.7982"/>
<path d="M37.8694 14.7501L40.2121 18.3314L37.1279 15.6001L37.8694 14.7501Z" fill="#E4751F" stroke="#E4751F" stroke-width="0.0764" stroke-miterlimit="23.7982"/>
<path d="M37.1343 15.6001L40.2184 18.3314L39.8944 18.6251L37.1343 15.6001Z" fill="#F6851B" stroke="#F6851B" stroke-width="0.0764" stroke-miterlimit="23.7982"/>
<path d="M39.8941 18.6189L34.9033 16.9001L37.1401 15.6001L39.8941 18.6189ZM41.9875 18.1314L40.2181 18.3314L37.8753 14.7501L41.9875 18.1314Z" fill="#F6851B" stroke="#F6851B" stroke-width="0.0764" stroke-miterlimit="23.7982"/>
<path d="M42.4549 19.8125L41.6947 21.3438L39.2212 21.7438L42.4549 19.8125ZM39.2212 21.7438L38.9595 21.0313L39.595 20.3313L39.2212 21.7438Z" fill="#C0AD9E" stroke="#C0AD9E" stroke-width="0.0764" stroke-miterlimit="23.7982"/>
<path d="M39.5887 20.3314L40.056 20.1439L39.2148 21.7439L39.5887 20.3314ZM39.2211 21.7439L40.0622 20.1439L42.461 19.8064L39.2211 21.7439Z" fill="#C0AD9E" stroke="#C0AD9E" stroke-width="0.0764" stroke-miterlimit="23.7982"/>
<path d="M41.9878 18.1313L42.5735 18.4876L40.7915 18.7001L41.9878 18.1313Z" fill="#161616" stroke="#161616" stroke-width="0.0764" stroke-miterlimit="23.7982"/>
<path d="M40.7915 18.7002L40.2183 18.3252L41.9878 18.1252L40.7915 18.7002ZM40.5859 18.9814L42.7541 18.7189L42.4551 19.8064L40.5859 18.9814Z" fill="#161616" stroke="#161616" stroke-width="0.0764" stroke-miterlimit="23.7982"/>
<path d="M42.455 19.8123L40.0562 20.1498L40.5858 18.9873L42.455 19.8123ZM40.0562 20.1436L39.5889 20.3311L39.8879 18.6186L40.0562 20.1436ZM39.8942 18.6186L40.2182 18.3248L40.7914 18.6998L39.8942 18.6186ZM42.5733 18.4873L42.754 18.7186L40.5858 18.9811L42.5733 18.4873Z" fill="#161616" stroke="#161616" stroke-width="0.0764" stroke-miterlimit="23.7982"/>
<path d="M40.5856 18.9813L40.7913 18.7L42.5732 18.4875L40.5856 18.9813ZM39.894 18.6188L40.5919 18.9813L40.0623 20.1438L39.894 18.6188Z" fill="#161616" stroke="#161616" stroke-width="0.0764" stroke-miterlimit="23.7982"/>
<path d="M40.7916 18.6998L40.586 18.9811L39.8882 18.6186L40.7916 18.6998Z" fill="#161616" stroke="#161616" stroke-width="0.0764" stroke-miterlimit="23.7982"/>
<path d="M18.9719 11.016V12.68H15.9159V15.992H14.1079V12.68H11.0359V11.016H14.1079V7.72H15.9159V11.016H18.9719Z" fill="white"/>
</svg>
